<svg width="138" height="10" viewBox="0 0 138 10" fill="none" xmlns="http://www.w3.org/2000/svg">
<path d="M3.84469 8.87C3.43669 8.87 3.04869 8.822 2.68069 8.726C2.32069 8.622 1.99669 8.466 1.70869 8.258C1.42869 8.042 1.20469 7.774 1.03669 7.454C0.868688 7.134 0.776688 6.758 0.760688 6.326C0.760688 6.254 0.784688 6.194 0.832688 6.146C0.880688 6.09 0.944688 6.062 1.02469 6.062H1.67269C1.76069 6.062 1.82869 6.09 1.87669 6.146C1.93269 6.194 1.96869 6.258 1.98469 6.338C2.01669 6.698 2.12069 6.99 2.29669 7.214C2.47269 7.43 2.69669 7.59 2.96869 7.694C3.24069 7.798 3.54069 7.85 3.86869 7.85C4.47669 7.85 4.94069 7.65 5.26069 7.25C5.58069 6.85 5.74069 6.318 5.74069 5.654V1.394H1.48069C1.40069 1.394 1.33269 1.37 1.27669 1.322C1.22869 1.266 1.20469 1.198 1.20469 1.118V0.625999C1.20469 0.546 1.22869 0.482 1.27669 0.434C1.33269 0.378 1.40069 0.349999 1.48069 0.349999H6.65269C6.74069 0.349999 6.80869 0.378 6.85669 0.434C6.91269 0.482 6.94069 0.549999 6.94069 0.637999V5.678C6.94069 6.326 6.81669 6.89 6.56869 7.37C6.32069 7.85 5.96869 8.222 5.51269 8.486C5.05669 8.742 4.50069 8.87 3.84469 8.87ZM9.23016 8.75C9.14216 8.75 9.07416 8.726 9.02616 8.678C8.97816 8.622 8.95416 8.554 8.95416 8.474V0.637999C8.95416 0.549999 8.97816 0.482 9.02616 0.434C9.07416 0.378 9.14216 0.349999 9.23016 0.349999H12.2782C12.8702 0.349999 13.3822 0.445999 13.8142 0.637999C14.2542 0.83 14.5942 1.118 14.8342 1.502C15.0742 1.878 15.1942 2.35 15.1942 2.918C15.1942 3.486 15.0742 3.958 14.8342 4.334C14.5942 4.71 14.2542 4.994 13.8142 5.186C13.3822 5.378 12.8702 5.474 12.2782 5.474H10.1542V8.474C10.1542 8.554 10.1262 8.622 10.0702 8.678C10.0222 8.726 9.95416 8.75 9.86616 8.75H9.23016ZM10.1422 4.466H12.2182C12.8102 4.466 13.2542 4.334 13.5502 4.07C13.8462 3.806 13.9942 3.422 13.9942 2.918C13.9942 2.422 13.8502 2.038 13.5622 1.766C13.2742 1.494 12.8262 1.358 12.2182 1.358H10.1422V4.466ZM19.7014 8.87C18.9974 8.87 18.3974 8.738 17.9014 8.474C17.4134 8.21 17.0374 7.838 16.7734 7.358C16.5174 6.878 16.3734 6.314 16.3414 5.666C16.3334 5.314 16.3294 4.942 16.3294 4.55C16.3294 4.15 16.3334 3.77 16.3414 3.41C16.3734 2.762 16.5174 2.202 16.7734 1.73C17.0374 1.258 17.4174 0.889999 17.9134 0.625999C18.4094 0.362 19.0054 0.23 19.7014 0.23C20.2694 0.23 20.7614 0.309999 21.1774 0.469999C21.5934 0.63 21.9334 0.834 22.1974 1.082C22.4694 1.322 22.6694 1.574 22.7974 1.838C22.9334 2.102 23.0054 2.334 23.0134 2.534C23.0214 2.606 23.0014 2.666 22.9534 2.714C22.9054 2.754 22.8414 2.774 22.7614 2.774H22.0534C21.9734 2.774 21.9134 2.758 21.8734 2.726C21.8414 2.694 21.8094 2.638 21.7774 2.558C21.7054 2.35 21.5854 2.146 21.4174 1.946C21.2574 1.746 21.0374 1.582 20.7574 1.454C20.4854 1.318 20.1334 1.25 19.7014 1.25C19.0694 1.25 18.5574 1.422 18.1654 1.766C17.7814 2.11 17.5734 2.678 17.5414 3.47C17.5174 4.182 17.5174 4.894 17.5414 5.606C17.5734 6.406 17.7854 6.982 18.1774 7.334C18.5694 7.678 19.0814 7.85 19.7134 7.85C20.1374 7.85 20.5134 7.774 20.8414 7.622C21.1774 7.462 21.4414 7.218 21.6334 6.89C21.8254 6.562 21.9214 6.146 21.9214 5.642V5.138H20.1214C20.0414 5.138 19.9734 5.114 19.9174 5.066C19.8694 5.01 19.8454 4.938 19.8454 4.85V4.466C19.8454 4.378 19.8694 4.31 19.9174 4.262C19.9734 4.206 20.0414 4.178 20.1214 4.178H22.8334C22.9214 4.178 22.9894 4.206 23.0374 4.262C23.0854 4.31 23.1094 4.378 23.1094 4.466V5.618C23.1094 6.274 22.9734 6.846 22.7014 7.334C22.4374 7.822 22.0494 8.202 21.5374 8.474C21.0254 8.738 20.4134 8.87 19.7014 8.87ZM24.4056 9.65C24.3416 9.65 24.2896 9.626 24.2496 9.578C24.2176 9.53 24.2056 9.47 24.2136 9.398L24.4896 7.682C24.5056 7.586 24.5376 7.506 24.5856 7.442C24.6416 7.37 24.7216 7.334 24.8256 7.334H25.6296C25.6856 7.334 25.7296 7.354 25.7616 7.394C25.8016 7.434 25.8216 7.482 25.8216 7.538C25.8216 7.602 25.8056 7.666 25.7736 7.73L25.1496 9.374C25.1176 9.454 25.0736 9.518 25.0176 9.566C24.9696 9.622 24.8976 9.65 24.8016 9.65H24.4056ZM30.8513 8.75C30.7633 8.75 30.6953 8.726 30.6473 8.678C30.5993 8.622 30.5753 8.554 30.5753 8.474V0.637999C30.5753 0.549999 30.5993 0.482 30.6473 0.434C30.6953 0.378 30.7633 0.349999 30.8513 0.349999H33.8993C34.4913 0.349999 35.0033 0.445999 35.4353 0.637999C35.8753 0.83 36.2153 1.118 36.4553 1.502C36.6953 1.878 36.8153 2.35 36.8153 2.918C36.8153 3.486 36.6953 3.958 36.4553 4.334C36.2153 4.71 35.8753 4.994 35.4353 5.186C35.0033 5.378 34.4913 5.474 33.8993 5.474H31.7753V8.474C31.7753 8.554 31.7473 8.622 31.6913 8.678C31.6433 8.726 31.5753 8.75 31.4873 8.75H30.8513ZM31.7633 4.466H33.8393C34.4313 4.466 34.8753 4.334 35.1713 4.07C35.4673 3.806 35.6153 3.422 35.6153 2.918C35.6153 2.422 35.4713 2.038 35.1833 1.766C34.8953 1.494 34.4473 1.358 33.8393 1.358H31.7633V4.466ZM38.5505 8.75C38.4625 8.75 38.3945 8.726 38.3465 8.678C38.2985 8.622 38.2745 8.554 38.2745 8.474V0.637999C38.2745 0.549999 38.2985 0.482 38.3465 0.434C38.3945 0.378 38.4625 0.349999 38.5505 0.349999H39.1025C39.1985 0.349999 39.2705 0.374 39.3185 0.422C39.3665 0.462 39.3945 0.494 39.4025 0.517999L43.3865 6.638V0.637999C43.3865 0.549999 43.4105 0.482 43.4585 0.434C43.5065 0.378 43.5745 0.349999 43.6625 0.349999H44.2385C44.3265 0.349999 44.3945 0.378 44.4425 0.434C44.4985 0.482 44.5265 0.549999 44.5265 0.637999V8.462C44.5265 8.542 44.4985 8.61 44.4425 8.666C44.3945 8.722 44.3305 8.75 44.2505 8.75H43.6745C43.5865 8.75 43.5185 8.726 43.4705 8.678C43.4305 8.63 43.4025 8.598 43.3865 8.582L39.4145 2.522V8.474C39.4145 8.554 39.3865 8.622 39.3305 8.678C39.2825 8.726 39.2145 8.75 39.1265 8.75H38.5505ZM49.6545 8.87C48.9505 8.87 48.3505 8.738 47.8545 8.474C47.3665 8.21 46.9905 7.838 46.7265 7.358C46.4705 6.878 46.3265 6.314 46.2945 5.666C46.2865 5.314 46.2825 4.942 46.2825 4.55C46.2825 4.15 46.2865 3.77 46.2945 3.41C46.3265 2.762 46.4705 2.202 46.7265 1.73C46.9905 1.258 47.3705 0.889999 47.8665 0.625999C48.3625 0.362 48.9585 0.23 49.6545 0.23C50.2225 0.23 50.7145 0.309999 51.1305 0.469999C51.5465 0.63 51.8865 0.834 52.1505 1.082C52.4225 1.322 52.6225 1.574 52.7505 1.838C52.8865 2.102 52.9585 2.334 52.9665 2.534C52.9745 2.606 52.9545 2.666 52.9065 2.714C52.8585 2.754 52.7945 2.774 52.7145 2.774H52.0065C51.9265 2.774 51.8665 2.758 51.8265 2.726C51.7945 2.694 51.7625 2.638 51.7305 2.558C51.6585 2.35 51.5385 2.146 51.3705 1.946C51.2105 1.746 50.9905 1.582 50.7105 1.454C50.4385 1.318 50.0865 1.25 49.6545 1.25C49.0225 1.25 48.5105 1.422 48.1185 1.766C47.7345 2.11 47.5265 2.678 47.4945 3.47C47.4705 4.182 47.4705 4.894 47.4945 5.606C47.5265 6.406 47.7385 6.982 48.1305 7.334C48.5225 7.678 49.0345 7.85 49.6665 7.85C50.0905 7.85 50.4665 7.774 50.7945 7.622C51.1305 7.462 51.3945 7.218 51.5865 6.89C51.7785 6.562 51.8745 6.146 51.8745 5.642V5.138H50.0745C49.9945 5.138 49.9265 5.114 49.8705 5.066C49.8225 5.01 49.7985 4.938 49.7985 4.85V4.466C49.7985 4.378 49.8225 4.31 49.8705 4.262C49.9265 4.206 49.9945 4.178 50.0745 4.178H52.7865C52.8745 4.178 52.9425 4.206 52.9905 4.262C53.0385 4.31 53.0625 4.378 53.0625 4.466V5.618C53.0625 6.274 52.9265 6.846 52.6545 7.334C52.3905 7.822 52.0025 8.202 51.4905 8.474C50.9785 8.738 50.3665 8.87 49.6545 8.87ZM58.6519 6.398C58.4199 6.398 58.2039 6.342 58.0039 6.23C57.8119 6.11 57.6559 5.95 57.5359 5.75C57.4239 5.55 57.3679 5.334 57.3679 5.102C57.3679 4.862 57.4239 4.646 57.5359 4.454C57.6559 4.262 57.8119 4.11 58.0039 3.998C58.2039 3.878 58.4199 3.818 58.6519 3.818C58.8919 3.818 59.1079 3.878 59.2999 3.998C59.4919 4.11 59.6439 4.262 59.7559 4.454C59.8759 4.646 59.9359 4.862 59.9359 5.102C59.9359 5.334 59.8759 5.55 59.7559 5.75C59.6439 5.95 59.4919 6.11 59.2999 6.23C59.1079 6.342 58.8919 6.398 58.6519 6.398ZM64.8942 8.75C64.8142 8.75 64.7462 8.726 64.6902 8.678C64.6422 8.622 64.6182 8.554 64.6182 8.474V0.637999C64.6182 0.549999 64.6422 0.482 64.6902 0.434C64.7462 0.378 64.8142 0.349999 64.8942 0.349999H65.4942C65.5902 0.349999 65.6622 0.374 65.7102 0.422C65.7582 0.47 65.7862 0.51 65.7942 0.542L68.3382 5.39L70.8942 0.542C70.9102 0.51 70.9382 0.47 70.9782 0.422C71.0262 0.374 71.0982 0.349999 71.1942 0.349999H71.7822C71.8702 0.349999 71.9382 0.378 71.9862 0.434C72.0422 0.482 72.0702 0.549999 72.0702 0.637999V8.474C72.0702 8.554 72.0422 8.622 71.9862 8.678C71.9382 8.726 71.8702 8.75 71.7822 8.75H71.1942C71.1142 8.75 71.0462 8.726 70.9902 8.678C70.9422 8.622 70.9182 8.554 70.9182 8.474V2.57L68.9142 6.482C68.8822 6.562 68.8342 6.626 68.7702 6.674C68.7062 6.714 68.6262 6.734 68.5302 6.734H68.1582C68.0542 6.734 67.9702 6.714 67.9062 6.674C67.8502 6.626 67.8022 6.562 67.7622 6.482L65.7582 2.57V8.474C65.7582 8.554 65.7302 8.622 65.6742 8.678C65.6262 8.726 65.5622 8.75 65.4822 8.75H64.8942ZM75.7296 8.87C75.3296 8.87 74.9656 8.79 74.6376 8.63C74.3096 8.47 74.0456 8.254 73.8456 7.982C73.6456 7.71 73.5456 7.402 73.5456 7.058C73.5456 6.506 73.7696 6.066 74.2176 5.738C74.6656 5.41 75.2496 5.194 75.9696 5.09L77.7576 4.838V4.49C77.7576 4.106 77.6456 3.806 77.4216 3.59C77.2056 3.374 76.8496 3.266 76.3536 3.266C75.9936 3.266 75.7016 3.338 75.4776 3.482C75.2616 3.626 75.1096 3.81 75.0216 4.034C74.9736 4.154 74.8896 4.214 74.7696 4.214H74.2296C74.1416 4.214 74.0736 4.19 74.0256 4.142C73.9856 4.086 73.9656 4.022 73.9656 3.95C73.9656 3.83 74.0096 3.682 74.0976 3.506C74.1936 3.33 74.3376 3.158 74.5296 2.99C74.7216 2.822 74.9656 2.682 75.2616 2.57C75.5656 2.45 75.9336 2.39 76.3656 2.39C76.8456 2.39 77.2496 2.454 77.5776 2.582C77.9056 2.702 78.1616 2.866 78.3456 3.074C78.5376 3.282 78.6736 3.518 78.7536 3.782C78.8416 4.046 78.8856 4.314 78.8856 4.586V8.474C78.8856 8.554 78.8576 8.622 78.8016 8.678C78.7536 8.726 78.6896 8.75 78.6096 8.75H78.0576C77.9696 8.75 77.9016 8.726 77.8536 8.678C77.8056 8.622 77.7816 8.554 77.7816 8.474V7.958C77.6776 8.102 77.5376 8.246 77.3616 8.39C77.1856 8.526 76.9656 8.642 76.7016 8.738C76.4376 8.826 76.1136 8.87 75.7296 8.87ZM75.9816 7.97C76.3096 7.97 76.6096 7.902 76.8816 7.766C77.1536 7.622 77.3656 7.402 77.5176 7.106C77.6776 6.81 77.7576 6.438 77.7576 5.99V5.654L76.3656 5.858C75.7976 5.938 75.3696 6.074 75.0816 6.266C74.7936 6.45 74.6496 6.686 74.6496 6.974C74.6496 7.198 74.7136 7.386 74.8416 7.538C74.9776 7.682 75.1456 7.79 75.3456 7.862C75.5536 7.934 75.7656 7.97 75.9816 7.97ZM80.3227 8.75C80.2587 8.75 80.1987 8.726 80.1427 8.678C80.0947 8.63 80.0707 8.57 80.0707 8.498C80.0707 8.474 80.0747 8.446 80.0827 8.414C80.0987 8.374 80.1227 8.33 80.1547 8.282L82.2427 5.558L80.2867 2.978C80.2547 2.93 80.2307 2.89 80.2147 2.858C80.2067 2.826 80.2027 2.794 80.2027 2.762C80.2027 2.69 80.2267 2.63 80.2747 2.582C80.3227 2.534 80.3827 2.51 80.4547 2.51H81.0667C81.1547 2.51 81.2187 2.534 81.2587 2.582C81.3067 2.622 81.3467 2.662 81.3787 2.702L82.9747 4.778L84.5707 2.714C84.6027 2.674 84.6387 2.63 84.6787 2.582C84.7267 2.534 84.7947 2.51 84.8827 2.51H85.4707C85.5427 2.51 85.6027 2.534 85.6507 2.582C85.6987 2.63 85.7227 2.69 85.7227 2.762C85.7227 2.794 85.7147 2.826 85.6987 2.858C85.6907 2.89 85.6707 2.93 85.6387 2.978L83.6587 5.582L85.7467 8.282C85.7787 8.33 85.7987 8.37 85.8067 8.402C85.8227 8.434 85.8307 8.466 85.8307 8.498C85.8307 8.57 85.8067 8.63 85.7587 8.678C85.7107 8.726 85.6507 8.75 85.5787 8.75H84.9427C84.8627 8.75 84.7987 8.73 84.7507 8.69C84.7027 8.65 84.6627 8.61 84.6307 8.57L82.9387 6.374L81.2467 8.57C81.2147 8.602 81.1747 8.642 81.1267 8.69C81.0867 8.73 81.0227 8.75 80.9347 8.75H80.3227ZM92.1808 8.87C91.7328 8.87 91.3488 8.814 91.0288 8.702C90.7088 8.59 90.4488 8.454 90.2488 8.294C90.0488 8.134 89.8968 7.974 89.7928 7.814C89.6968 7.654 89.6448 7.526 89.6368 7.43C89.6288 7.342 89.6568 7.274 89.7208 7.226C89.7848 7.178 89.8488 7.154 89.9128 7.154H90.4408C90.4888 7.154 90.5248 7.162 90.5488 7.178C90.5808 7.186 90.6208 7.218 90.6688 7.274C90.7728 7.386 90.8888 7.498 91.0168 7.61C91.1448 7.722 91.3008 7.814 91.4848 7.886C91.6768 7.958 91.9128 7.994 92.1928 7.994C92.6008 7.994 92.9368 7.918 93.2008 7.766C93.4648 7.606 93.5968 7.374 93.5968 7.07C93.5968 6.87 93.5408 6.71 93.4288 6.59C93.3248 6.47 93.1328 6.362 92.8528 6.266C92.5808 6.17 92.2048 6.07 91.7248 5.966C91.2448 5.854 90.8648 5.718 90.5848 5.558C90.3048 5.39 90.1048 5.194 89.9848 4.97C89.8648 4.738 89.8048 4.478 89.8048 4.19C89.8048 3.894 89.8928 3.61 90.0688 3.338C90.2448 3.058 90.5008 2.83 90.8368 2.654C91.1808 2.478 91.6088 2.39 92.1208 2.39C92.5368 2.39 92.8928 2.442 93.1888 2.546C93.4848 2.65 93.7288 2.782 93.9208 2.942C94.1128 3.094 94.2568 3.246 94.3528 3.398C94.4488 3.55 94.5008 3.678 94.5088 3.782C94.5168 3.862 94.4928 3.93 94.4368 3.986C94.3808 4.034 94.3168 4.058 94.2448 4.058H93.7408C93.6848 4.058 93.6368 4.046 93.5968 4.022C93.5648 3.998 93.5328 3.97 93.5008 3.938C93.4208 3.834 93.3248 3.73 93.2128 3.626C93.1088 3.522 92.9688 3.438 92.7928 3.374C92.6248 3.302 92.4008 3.266 92.1208 3.266C91.7208 3.266 91.4208 3.35 91.2208 3.518C91.0208 3.686 90.9208 3.898 90.9208 4.154C90.9208 4.306 90.9648 4.442 91.0528 4.562C91.1408 4.682 91.3088 4.79 91.5568 4.886C91.8048 4.982 92.1728 5.086 92.6608 5.198C93.1888 5.302 93.6048 5.442 93.9088 5.618C94.2128 5.794 94.4288 5.998 94.5568 6.23C94.6848 6.462 94.7488 6.73 94.7488 7.034C94.7488 7.37 94.6488 7.678 94.4488 7.958C94.2568 8.238 93.9688 8.462 93.5848 8.63C93.2088 8.79 92.7408 8.87 92.1808 8.87ZM96.414 8.75C96.334 8.75 96.266 8.726 96.21 8.678C96.162 8.622 96.138 8.554 96.138 8.474V2.786C96.138 2.706 96.162 2.642 96.21 2.594C96.266 2.538 96.334 2.51 96.414 2.51H96.99C97.07 2.51 97.134 2.538 97.182 2.594C97.23 2.642 97.254 2.706 97.254 2.786V8.474C97.254 8.554 97.23 8.622 97.182 8.678C97.134 8.726 97.07 8.75 96.99 8.75H96.414ZM96.318 1.346C96.238 1.346 96.17 1.322 96.114 1.274C96.066 1.218 96.042 1.15 96.042 1.07V0.422C96.042 0.342 96.066 0.277999 96.114 0.23C96.17 0.174 96.238 0.146 96.318 0.146H97.074C97.154 0.146 97.218 0.174 97.266 0.23C97.322 0.277999 97.35 0.342 97.35 0.422V1.07C97.35 1.15 97.322 1.218 97.266 1.274C97.218 1.322 97.154 1.346 97.074 1.346H96.318ZM98.9828 8.75C98.9028 8.75 98.8348 8.726 98.7788 8.678C98.7308 8.622 98.7068 8.554 98.7068 8.474V8.054C98.7068 7.982 98.7228 7.914 98.7548 7.85C98.7948 7.786 98.8348 7.726 98.8748 7.67L102.187 3.458H99.0908C99.0108 3.458 98.9428 3.434 98.8868 3.386C98.8388 3.338 98.8148 3.27 98.8148 3.182V2.786C98.8148 2.706 98.8388 2.642 98.8868 2.594C98.9428 2.538 99.0108 2.51 99.0908 2.51H103.363C103.443 2.51 103.507 2.538 103.555 2.594C103.611 2.642 103.639 2.706 103.639 2.786V3.23C103.639 3.302 103.619 3.366 103.579 3.422C103.547 3.478 103.511 3.538 103.471 3.602L100.195 7.802H103.603C103.683 7.802 103.747 7.826 103.795 7.874C103.851 7.922 103.879 7.99 103.879 8.078V8.474C103.879 8.554 103.851 8.622 103.795 8.678C103.747 8.726 103.683 8.75 103.603 8.75H98.9828ZM107.622 8.87C106.798 8.87 106.142 8.618 105.654 8.114C105.166 7.602 104.898 6.906 104.85 6.026C104.842 5.922 104.838 5.79 104.838 5.63C104.838 5.462 104.842 5.326 104.85 5.222C104.882 4.654 105.014 4.158 105.246 3.734C105.478 3.302 105.794 2.97 106.194 2.738C106.602 2.506 107.078 2.39 107.622 2.39C108.23 2.39 108.738 2.518 109.146 2.774C109.562 3.03 109.878 3.394 110.094 3.866C110.31 4.338 110.418 4.89 110.418 5.522V5.726C110.418 5.814 110.39 5.882 110.334 5.93C110.286 5.978 110.222 6.002 110.142 6.002H105.99C105.99 6.01 105.99 6.026 105.99 6.05C105.99 6.074 105.99 6.094 105.99 6.11C106.006 6.438 106.078 6.746 106.206 7.034C106.334 7.314 106.518 7.542 106.758 7.718C106.998 7.894 107.286 7.982 107.622 7.982C107.91 7.982 108.15 7.938 108.342 7.85C108.534 7.762 108.69 7.666 108.81 7.562C108.93 7.45 109.01 7.366 109.05 7.31C109.122 7.206 109.178 7.146 109.218 7.13C109.258 7.106 109.322 7.094 109.41 7.094H109.986C110.066 7.094 110.13 7.118 110.178 7.166C110.234 7.206 110.258 7.266 110.25 7.346C110.242 7.466 110.178 7.614 110.058 7.79C109.938 7.958 109.766 8.126 109.542 8.294C109.318 8.462 109.046 8.602 108.726 8.714C108.406 8.818 108.038 8.87 107.622 8.87ZM105.99 5.174H109.278V5.138C109.278 4.778 109.21 4.458 109.074 4.178C108.946 3.898 108.758 3.678 108.51 3.518C108.262 3.35 107.966 3.266 107.622 3.266C107.278 3.266 106.982 3.35 106.734 3.518C106.494 3.678 106.31 3.898 106.182 4.178C106.054 4.458 105.99 4.778 105.99 5.138V5.174ZM117.41 8.87C116.778 8.87 116.242 8.762 115.802 8.546C115.37 8.322 115.038 8.034 114.806 7.682C114.582 7.33 114.462 6.958 114.446 6.566C114.438 6.494 114.458 6.438 114.506 6.398C114.554 6.358 114.614 6.338 114.686 6.338H115.334C115.406 6.338 115.47 6.354 115.526 6.386C115.582 6.418 115.626 6.486 115.658 6.59C115.738 6.886 115.866 7.13 116.042 7.322C116.226 7.506 116.434 7.642 116.666 7.73C116.906 7.81 117.154 7.85 117.41 7.85C117.754 7.85 118.066 7.782 118.346 7.646C118.634 7.502 118.862 7.294 119.03 7.022C119.198 6.742 119.282 6.406 119.282 6.014C119.282 5.654 119.198 5.346 119.03 5.09C118.87 4.826 118.646 4.626 118.358 4.49C118.078 4.346 117.762 4.274 117.41 4.274C117.146 4.274 116.93 4.306 116.762 4.37C116.594 4.434 116.45 4.51 116.33 4.598C116.218 4.686 116.114 4.762 116.018 4.826C115.93 4.89 115.83 4.922 115.718 4.922H115.094C115.022 4.922 114.958 4.898 114.902 4.85C114.846 4.794 114.822 4.73 114.83 4.658L115.214 0.65C115.222 0.554 115.25 0.482 115.298 0.434C115.354 0.378 115.426 0.349999 115.514 0.349999H119.702C119.782 0.349999 119.846 0.378 119.894 0.434C119.95 0.482 119.978 0.546 119.978 0.625999V1.094C119.978 1.182 119.95 1.25 119.894 1.298C119.846 1.346 119.782 1.37 119.702 1.37H116.246L116.018 3.734C116.13 3.662 116.31 3.578 116.558 3.482C116.806 3.378 117.146 3.326 117.578 3.326C117.97 3.326 118.338 3.386 118.682 3.506C119.034 3.626 119.346 3.802 119.618 4.034C119.89 4.266 120.102 4.55 120.254 4.886C120.406 5.214 120.482 5.594 120.482 6.026C120.482 6.634 120.346 7.15 120.074 7.574C119.81 7.998 119.446 8.322 118.982 8.546C118.526 8.762 118.002 8.87 117.41 8.87ZM122.351 8.75C122.271 8.75 122.203 8.726 122.147 8.678C122.099 8.622 122.075 8.554 122.075 8.474V0.637999C122.075 0.549999 122.099 0.482 122.147 0.434C122.203 0.378 122.271 0.349999 122.351 0.349999H122.951C123.047 0.349999 123.119 0.374 123.167 0.422C123.215 0.47 123.243 0.51 123.251 0.542L125.795 5.39L128.351 0.542C128.367 0.51 128.395 0.47 128.435 0.422C128.483 0.374 128.555 0.349999 128.651 0.349999H129.239C129.327 0.349999 129.395 0.378 129.443 0.434C129.499 0.482 129.527 0.549999 129.527 0.637999V8.474C129.527 8.554 129.499 8.622 129.443 8.678C129.395 8.726 129.327 8.75 129.239 8.75H128.651C128.571 8.75 128.503 8.726 128.447 8.678C128.399 8.622 128.375 8.554 128.375 8.474V2.57L126.371 6.482C126.339 6.562 126.291 6.626 126.227 6.674C126.163 6.714 126.083 6.734 125.987 6.734H125.615C125.511 6.734 125.427 6.714 125.363 6.674C125.307 6.626 125.259 6.562 125.219 6.482L123.215 2.57V8.474C123.215 8.554 123.187 8.622 123.131 8.678C123.083 8.726 123.019 8.75 122.939 8.75H122.351ZM134.531 8.87C134.051 8.87 133.651 8.786 133.331 8.618C133.011 8.442 132.755 8.226 132.563 7.97V8.474C132.563 8.554 132.535 8.622 132.479 8.678C132.431 8.726 132.367 8.75 132.287 8.75H131.735C131.655 8.75 131.587 8.726 131.531 8.678C131.483 8.622 131.459 8.554 131.459 8.474V0.506C131.459 0.426 131.483 0.362 131.531 0.314C131.587 0.258 131.655 0.23 131.735 0.23H132.311C132.399 0.23 132.467 0.258 132.515 0.314C132.563 0.362 132.587 0.426 132.587 0.506V3.266C132.787 3.018 133.043 2.81 133.355 2.642C133.675 2.474 134.067 2.39 134.531 2.39C134.979 2.39 135.359 2.47 135.671 2.63C135.991 2.782 136.251 2.994 136.451 3.266C136.659 3.538 136.815 3.846 136.919 4.19C137.023 4.534 137.079 4.894 137.087 5.27C137.095 5.398 137.099 5.518 137.099 5.63C137.099 5.742 137.095 5.862 137.087 5.99C137.079 6.374 137.023 6.738 136.919 7.082C136.815 7.426 136.659 7.734 136.451 8.006C136.251 8.27 135.991 8.482 135.671 8.642C135.359 8.794 134.979 8.87 134.531 8.87ZM134.279 7.898C134.695 7.898 135.019 7.81 135.251 7.634C135.491 7.45 135.663 7.214 135.767 6.926C135.871 6.63 135.931 6.314 135.947 5.978C135.955 5.746 135.955 5.514 135.947 5.282C135.931 4.946 135.871 4.634 135.767 4.346C135.663 4.05 135.491 3.814 135.251 3.638C135.019 3.454 134.695 3.362 134.279 3.362C133.903 3.362 133.591 3.45 133.343 3.626C133.095 3.802 132.907 4.026 132.779 4.298C132.659 4.57 132.595 4.846 132.587 5.126C132.579 5.254 132.575 5.41 132.575 5.594C132.575 5.77 132.579 5.922 132.587 6.05C132.603 6.346 132.667 6.638 132.779 6.926C132.899 7.206 133.079 7.438 133.319 7.622C133.567 7.806 133.887 7.898 134.279 7.898Z" fill="#828282"/>
</svg>
