<svg width="15" height="16" viewBox="0 0 13 10" fill="none" xmlns="http://www.w3.org/2000/svg">
<path opacity="0.7" d="M3.85678 9.12C3.17678 9.12 2.59278 9.004 2.10478 8.772C1.61678 8.532 1.24078 8.168 0.976781 7.68C0.712781 7.184 0.564781 6.564 0.532781 5.82C0.524781 5.468 0.520781 5.132 0.520781 4.812C0.520781 4.484 0.524781 4.144 0.532781 3.792C0.564781 3.056 0.716781 2.444 0.988781 1.956C1.26878 1.46 1.65278 1.092 2.14078 0.852C2.63678 0.604 3.20878 0.48 3.85678 0.48C4.51278 0.48 5.08478 0.604 5.57278 0.852C6.06878 1.092 6.45678 1.46 6.73678 1.956C7.01678 2.444 7.16878 3.056 7.19278 3.792C7.20878 4.144 7.21678 4.484 7.21678 4.812C7.21678 5.132 7.20878 5.468 7.19278 5.82C7.16878 6.564 7.02078 7.184 6.74878 7.68C6.48478 8.168 6.10878 8.532 5.62078 8.772C5.13278 9.004 4.54478 9.12 3.85678 9.12ZM3.85678 8.1C4.47278 8.1 4.97278 7.916 5.35678 7.548C5.74878 7.18 5.96078 6.584 5.99278 5.76C6.00878 5.4 6.01678 5.08 6.01678 4.8C6.01678 4.512 6.00878 4.192 5.99278 3.84C5.97678 3.288 5.87278 2.84 5.68078 2.496C5.49678 2.152 5.24878 1.9 4.93678 1.74C4.62478 1.58 4.26478 1.5 3.85678 1.5C3.46478 1.5 3.11278 1.58 2.80078 1.74C2.48878 1.9 2.23678 2.152 2.04478 2.496C1.86078 2.84 1.75678 3.288 1.73278 3.84C1.72478 4.192 1.72078 4.512 1.72078 4.8C1.72078 5.08 1.72478 5.4 1.73278 5.76C1.76478 6.584 1.97678 7.18 2.36878 7.548C2.76078 7.916 3.25678 8.1 3.85678 8.1ZM9.08588 9C9.00588 9 8.93788 8.976 8.88188 8.928C8.83388 8.872 8.80988 8.804 8.80988 8.724V3.048C8.80988 2.968 8.83388 2.9 8.88188 2.844C8.93788 2.788 9.00588 2.76 9.08588 2.76H9.63788C9.71788 2.76 9.78588 2.788 9.84188 2.844C9.89788 2.9 9.92588 2.968 9.92588 3.048V3.576C10.0859 3.304 10.3059 3.1 10.5859 2.964C10.8659 2.828 11.2019 2.76 11.5939 2.76H12.0739C12.1539 2.76 12.2179 2.788 12.2659 2.844C12.3139 2.892 12.3379 2.956 12.3379 3.036V3.528C12.3379 3.608 12.3139 3.672 12.2659 3.72C12.2179 3.768 12.1539 3.792 12.0739 3.792H11.3539C10.9219 3.792 10.5819 3.92 10.3339 4.176C10.0859 4.424 9.96188 4.764 9.96188 5.196V8.724C9.96188 8.804 9.93388 8.872 9.87788 8.928C9.82188 8.976 9.75388 9 9.67388 9H9.08588Z" fill="#828282"/>
</svg>

