<svg width="34" height="34" viewBox="0 0 34 34" fill="none" xmlns="http://www.w3.org/2000/svg">
<path d="M17 1H10.0435C5.0489 1 1 5.0489 1 10.0435V23.9565C1 28.9511 5.0489 33 10.0435 33H23.9565C28.9511 33 33 28.9511 33 23.9565V17" stroke="#6729F3" stroke-width="2" stroke-linecap="round" stroke-linejoin="round"/>
<path d="M10.0435 33H23.9565C25.3926 33 26.7505 32.6653 27.9565 32.0695L13.9154 18.845C12.8231 17.8162 11.1118 17.8388 10.047 18.896L1.62268 27.2609C2.94228 30.6211 6.21506 33 10.0435 33Z" fill="#6729F3" fill-opacity="0.2" stroke="#6729F3" stroke-width="2" stroke-linecap="round" stroke-linejoin="round"/>
<path d="M20.8191 25.3481L24.0682 22.2154C25.0925 21.2278 26.6969 21.1721 27.7873 22.0862L32.7151 26.2176C32.0534 28.7889 30.2892 30.9175 27.9566 32.0698L20.8191 25.3481Z" fill="#6729F3" fill-opacity="0.2" stroke="#6729F3" stroke-width="2" stroke-linecap="round" stroke-linejoin="round"/>
<path d="M26.3914 4.65234V12.1306" stroke="#6729F3" stroke-width="2" stroke-linecap="round" stroke-linejoin="round"/>
<path d="M26.3914 2.3916L30.5653 6.56551" stroke="#6729F3" stroke-width="2" stroke-linecap="round" stroke-linejoin="round"/>
<path d="M26.3914 2.3916L22.2174 6.56551" stroke="#6729F3" stroke-width="2" stroke-linecap="round" stroke-linejoin="round"/>
</svg>

