<svg width="31" height="30" viewBox="0 0 31 30" fill="none" xmlns="http://www.w3.org/2000/svg">
<g clip-path="url(#clip0_7943_4443)">
<path d="M20.5 20L15.5 15L10.5 20" stroke="#696974" stroke-width="2.5" stroke-linecap="round" stroke-linejoin="round"/>
<path d="M15.5 15V26.25" stroke="#696974" stroke-width="2.5" stroke-linecap="round" stroke-linejoin="round"/>
<path d="M25.9873 22.9874C27.2065 22.3227 28.1696 21.271 28.7247 19.9981C29.2797 18.7253 29.3951 17.3039 29.0526 15.9582C28.7101 14.6125 27.9292 13.4192 26.8332 12.5667C25.7371 11.7141 24.3884 11.2508 22.9998 11.2499H21.4248C21.0465 9.78641 20.3413 8.42778 19.3623 7.2761C18.3832 6.12442 17.1559 5.20967 15.7725 4.60062C14.389 3.99156 12.8855 3.70406 11.375 3.75971C9.86443 3.81537 8.38616 4.21273 7.0513 4.92194C5.71644 5.63115 4.55972 6.63374 3.66811 7.85434C2.77649 9.07493 2.17319 10.4818 1.90355 11.9691C1.63392 13.4564 1.70496 14.9855 2.11134 16.4414C2.51773 17.8973 3.24888 19.2422 4.24983 20.3749" stroke="#696974" stroke-width="2.5" stroke-linecap="round" stroke-linejoin="round"/>
<path d="M20.5 20L15.5 15L10.5 20" stroke="#696974" stroke-width="2.5" stroke-linecap="round" stroke-linejoin="round"/>
</g>
<defs>
<clipPath id="clip0_7943_4443">
<rect width="30" height="30" fill="white" transform="translate(0.5)"/>
</clipPath>
</defs>
</svg>
